<svg xmlns="http://www.w3.org/2000/svg" version="1.1" xmlns:xlink="http://www.w3.org/1999/xlink" xmlns:svgjs="http://svgjs.dev/svgjs" viewBox="0 0 800 800"><rect width="100%" height="100%" fill="hsl(0, 0%, 100%)"></rect><g fill="#5555e6"><rect width="672" height="2" x="-10" y="314" rx="1" transform="rotate(138, 326, 315)" opacity="0.57"></rect><rect width="734" height="2" x="-234" y="640" rx="1" transform="rotate(138, 133, 641)" opacity="0.17"></rect><rect width="124" height="2" x="639" y="458" rx="1" transform="rotate(138, 701, 459)" opacity="0.84"></rect><rect width="132" height="2" x="480" y="640" rx="1" transform="rotate(138, 546, 641)" opacity="0.12"></rect><rect width="275" height="2" x="-24.5" y="147" rx="1" transform="rotate(138, 113, 148)" opacity="0.94"></rect><rect width="281" height="2" x="558.5" y="712" rx="1" transform="rotate(138, 699, 713)" opacity="0.82"></rect><rect width="499" height="2" x="-152.5" y="400" rx="1" transform="rotate(138, 97, 401)" opacity="0.68"></rect><rect width="508" height="2" x="113" y="94" rx="1" transform="rotate(138, 367, 95)" opacity="0.53"></rect><rect width="560" height="2" x="161" y="458" rx="1" transform="rotate(138, 441, 459)" opacity="0.45"></rect><rect width="422" height="2" x="439" y="168" rx="1" transform="rotate(138, 650, 169)" opacity="0.92"></rect><rect width="737" height="2" x="-17.5" y="702" rx="1" transform="rotate(138, 351, 703)" opacity="0.23"></rect></g></svg>